<?xml version="1.0" encoding="utf-8"?>
<!-- Generator: Adobe Illustrator 19.2.1, SVG Export Plug-In . SVG Version: 6.00 Build 0)  -->
<svg version="1.1" id="Layer_1" xmlns="http://www.w3.org/2000/svg" xmlns:xlink="http://www.w3.org/1999/xlink" x="0px" y="0px"
	 width="250px" height="50px" viewBox="0 0 250 50" enable-background="new 0 0 250 50" xml:space="preserve">
<rect x="-31.7" y="0.6" display="none" fill="#27546F" width="503.7" height="48.8"/>
<g>
	<path fill-rule="evenodd" clip-rule="evenodd" fill="#FFFFFF" stroke="#27546F" stroke-miterlimit="10" d="M32.8,0.6
		c0.7,0.3,1.4,0.7,2.1,1c9.1,4.3,18.2,8.5,27.3,12.8c1.1,0.5,2.3,1.1,3.4,1.6c0.1,0,0.1,0.1,0.2,0.1c-0.1,0.1-0.2,0.1-0.3,0.1
		C60.4,18.6,55.2,21,50,23.4c-5.7,2.7-11.4,5.3-17.1,8c-0.2,0.1-0.3,0.1-0.5,0c-10.4-4.9-20.8-9.7-31.2-14.6
		c-0.5-0.2-1.1-0.5-1.6-0.8c0.5-0.2,0.9-0.4,1.3-0.6C11.1,10.7,21.2,6,31.2,1.3C31.7,1.1,32.2,0.9,32.8,0.6
		C32.7,0.6,32.7,0.6,32.8,0.6z"/>
	<path fill-rule="evenodd" clip-rule="evenodd" fill="#FFFFFF" stroke="#27546F" stroke-miterlimit="10" d="M-0.3,34
		c0.9-0.4,1.9-0.9,2.8-1.3c1.7-0.8,3.4-1.6,5.1-2.4c0.1-0.1,0.2-0.1,0.4,0c7.3,3.4,14.7,6.9,22,10.3c0.9,0.4,1.7,0.8,2.6,1.2
		c0.2,0.1,0.3,0.1,0.5,0c7.7-3.6,15.5-7.2,23.2-10.9c0.5-0.2,0.9-0.4,1.4-0.6c0.1,0,0.2,0,0.3,0c2.6,1.2,5.2,2.4,7.7,3.6
		c0,0,0.1,0,0.1,0.1c-0.9,0.4-1.8,0.9-2.7,1.3C53.1,39.9,43,44.6,33,49.3c-0.2,0.1-0.3,0.1-0.5,0c-10.4-4.9-20.8-9.7-31.1-14.6
		c-0.5-0.2-1-0.5-1.5-0.7C-0.2,34-0.2,34-0.3,34C-0.3,34-0.3,34-0.3,34z"/>
	<path fill-rule="evenodd" clip-rule="evenodd" fill="#BECBD3" d="M-0.3,25c0.1,0,0.2-0.1,0.3-0.1c2.5-1.2,5-2.3,7.5-3.5
		c0.2-0.1,0.3-0.1,0.4,0c8.2,3.8,16.4,7.6,24.5,11.5c0.2,0.1,0.3,0.1,0.5,0c8.2-3.8,16.4-7.7,24.6-11.5c0.1,0,0.2-0.1,0.3,0
		c2.6,1.2,5.2,2.4,7.8,3.6c0,0,0,0,0.1,0.1c-0.1,0.1-0.2,0.1-0.3,0.1c-5.8,2.7-11.5,5.4-17.3,8.1C43.1,35.6,38.1,38,33,40.4
		c-0.2,0.1-0.3,0.1-0.5,0C25.2,37,18,33.6,10.7,30.2c-3.1-1.5-6.2-2.9-9.4-4.4C0.8,25.5,0.2,25.3-0.3,25C-0.3,25-0.3,25-0.3,25z"/>
</g>
<g>
	<rect x="72.4" y="11.6" fill="none" width="183.5" height="30.7"/>
	<path fill="#FFFFFF" d="M79.4,23.5L79.4,23.5l0.5,15.1h-6v-27h6.5l4.9,15.1h0.1l-0.6-15.1h6v27h-6.5L79.4,23.5z"/>
	<path fill="#FFFFFF" d="M94,38.6v-27h14.5V17h-8.2v5h7.9v5.4h-7.9v5.8h8.6v5.4H94z"/>
	<path fill="#FFFFFF" d="M130,30.5L130,30.5l2.1-18.9h6l-4.5,27h-7.1l-1.9-19h-0.1l-2.1,19h-7l-4.5-27h6.1l1.9,19l0.1-0.1l2.6-18.9
		h6.1L130,30.5z"/>
	<path fill="#FFFFFF" d="M144.8,29.5v1.9c0,1.5,0.5,2.9,2.5,2.9c1.5,0,2.1-1.3,2.1-2.7c0-2.3-1.9-3.1-3.5-4.1
		c-1.9-1.1-3.6-2.2-4.8-3.5c-1.2-1.4-1.8-3-1.8-5.4c0-5.1,3.1-7.7,8-7.7c5.5,0,8.3,3.7,8,8.7h-5.8c-0.1-1.6,0-3.7-2.1-3.9
		c-1.3-0.1-2.1,0.6-2.2,1.8c-0.2,1.6,0.6,2.4,1.9,3.3c2.4,1.5,4.4,2.4,5.9,3.8c1.5,1.4,2.3,3.2,2.3,6.4c0,5.2-2.9,8.1-8.1,8.1
		c-5.8,0-8.2-3.2-8.2-6.8v-2.9H144.8z"/>
	<path fill="#BECBD3" d="M162.8,29.5v1.9c0,1.5,0.5,2.9,2.5,2.9c1.5,0,2.1-1.3,2.1-2.7c0-2.3-1.9-3.1-3.5-4.1
		c-1.9-1.1-3.6-2.2-4.8-3.5c-1.2-1.4-1.8-3-1.8-5.4c0-5.1,3.1-7.7,8-7.7c5.5,0,8.3,3.7,8,8.7h-5.8c-0.1-1.6,0-3.7-2.1-3.9
		c-1.3-0.1-2.1,0.6-2.2,1.8c-0.2,1.6,0.6,2.4,1.9,3.3c2.4,1.5,4.4,2.4,5.9,3.8c1.5,1.4,2.3,3.2,2.3,6.4c0,5.2-2.9,8.1-8.1,8.1
		c-5.8,0-8.2-3.2-8.2-6.8v-2.9H162.8z"/>
	<path fill="#BECBD3" d="M175.2,11.6h16.4V17h-5.1v21.6h-6.3V17h-5V11.6z"/>
	<path fill="#BECBD3" d="M190,38.6l5.9-27h7.6l5.9,27H203l-0.9-5.3h-5l-0.8,5.3H190z M199.7,16.5L199.7,16.5l-1.9,12.1h3.7
		L199.7,16.5z"/>
	<path fill="#BECBD3" d="M221.2,21v-1.7c0-2.3-0.8-3.5-2-3.5c-2,0-2.4,1-2.4,2.8l0,13.4c0,1.5,0.6,2.4,2.3,2.4
		c2.2,0,2.3-2.2,2.3-3.9V28h6.3v3.3c0,4.6-2.7,7.9-9.1,7.9c-5.8,0-8.1-3.1-8.1-8.6V19.5c0-5.9,2.7-8.6,8.5-8.6
		c5.4,0,8.6,2.3,8.6,7.8V21H221.2z"/>
	<path fill="#BECBD3" d="M230.6,38.6v-27h6.3v10.8h0.1l4.7-10.8h6.5l-5.8,11.9l6.1,15.1h-6.7l-3.5-9.4l-1.4,2.7v6.7H230.6z"/>
</g>
</svg>
