<?xml version="1.0" encoding="utf-8"?>
<!-- Generator: Adobe Illustrator 23.0.1, SVG Export Plug-In . SVG Version: 6.00 Build 0)  -->
<svg version="1.1" id="Layer_1" xmlns="http://www.w3.org/2000/svg" xmlns:xlink="http://www.w3.org/1999/xlink" x="0px" y="0px"
	 width="120px" height="120px" viewBox="0 0 120 120" enable-background="new 0 0 120 120" xml:space="preserve">
<rect x="-3" y="-3" fill-rule="evenodd" clip-rule="evenodd" fill="#DDDDDD" width="125" height="125"/>
<path fill-rule="evenodd" clip-rule="evenodd" fill="#FFFFFF" stroke="#DDDDDD" stroke-miterlimit="10" d="M59.8,35.6
	c0.7,0.3,1.4,0.7,2.1,1c9.1,4.3,18.2,8.5,27.3,12.8c1.1,0.5,2.3,1.1,3.4,1.6c0.1,0,0.1,0.1,0.2,0.1c-0.1,0.1-0.2,0.1-0.3,0.1
	C87.4,53.6,82.2,56,77,58.4c-5.7,2.7-11.4,5.3-17.1,8c-0.2,0.1-0.3,0.1-0.5,0C49,61.5,38.6,56.7,28.2,51.8c-0.5-0.2-1.1-0.5-1.6-0.8
	c0.5-0.2,0.9-0.4,1.3-0.6c10.2-4.7,20.3-9.4,30.3-14.1C58.7,36.1,59.2,35.9,59.8,35.6C59.7,35.6,59.7,35.6,59.8,35.6z"/>
<path fill-rule="evenodd" clip-rule="evenodd" fill="#FFFFFF" stroke="#DDDDDD" stroke-miterlimit="10" d="M26.7,69
	c0.9-0.4,1.9-0.9,2.8-1.3c1.7-0.8,3.4-1.6,5.1-2.4c0.1-0.1,0.2-0.1,0.4,0c7.3,3.4,14.7,6.9,22,10.3c0.9,0.4,1.7,0.8,2.6,1.2
	c0.2,0.1,0.3,0.1,0.5,0c7.7-3.6,15.5-7.2,23.2-10.9c0.5-0.2,0.9-0.4,1.4-0.6c0.1,0,0.2,0,0.3,0c2.6,1.2,5.2,2.4,7.7,3.6
	c0,0,0.1,0,0.1,0.1c-0.9,0.4-1.8,0.9-2.7,1.3c-10,4.6-20.1,9.3-30.1,14c-0.2,0.1-0.3,0.1-0.5,0c-10.4-4.9-20.8-9.7-31.1-14.6
	c-0.5-0.2-1-0.5-1.5-0.7C26.8,69,26.8,69,26.7,69L26.7,69z"/>
<path fill-rule="evenodd" clip-rule="evenodd" fill="#BECBD3" d="M26.7,60c0.1,0,0.2-0.1,0.3-0.1c2.5-1.2,5-2.3,7.5-3.5
	c0.2-0.1,0.3-0.1,0.4,0c8.2,3.8,16.4,7.6,24.5,11.5c0.2,0.1,0.3,0.1,0.5,0c8.2-3.8,16.4-7.7,24.6-11.5c0.1,0,0.2-0.1,0.3,0
	c2.6,1.2,5.2,2.4,7.8,3.6c0,0,0,0,0.1,0.1c-0.1,0.1-0.2,0.1-0.3,0.1c-5.8,2.7-11.5,5.4-17.3,8.1c-5,2.3-10,4.7-15.1,7.1
	c-0.2,0.1-0.3,0.1-0.5,0C52.2,72,45,68.6,37.7,65.2c-3.1-1.5-6.2-2.9-9.4-4.4C27.8,60.5,27.2,60.3,26.7,60L26.7,60z"/>
<g>
</g>
<g>
</g>
<g>
</g>
<g>
</g>
<g>
</g>
<g>
</g>
<g>
</g>
<g>
</g>
<g>
</g>
<g>
</g>
<g>
</g>
<g>
</g>
<g>
</g>
<g>
</g>
<g>
</g>
</svg>
